<svg width="345" height="327" viewBox="0 0 345 327" fill="none" xmlns="http://www.w3.org/2000/svg">
<path d="M0.818182 302.727H4.04545L10.5 313.591H10.7727L17.2273 302.727H20.4545L12.0455 316.409V326H9.22727V316.409L0.818182 302.727ZM28.358 326.364C26.7822 326.364 25.3996 325.989 24.2102 325.239C23.0284 324.489 22.1042 323.439 21.4375 322.091C20.7784 320.742 20.4489 319.167 20.4489 317.364C20.4489 315.545 20.7784 313.958 21.4375 312.602C22.1042 311.246 23.0284 310.193 24.2102 309.443C25.3996 308.693 26.7822 308.318 28.358 308.318C29.9337 308.318 31.3125 308.693 32.4943 309.443C33.6837 310.193 34.608 311.246 35.267 312.602C35.9337 313.958 36.267 315.545 36.267 317.364C36.267 319.167 35.9337 320.742 35.267 322.091C34.608 323.439 33.6837 324.489 32.4943 325.239C31.3125 325.989 29.9337 326.364 28.358 326.364ZM28.358 323.955C29.5549 323.955 30.5398 323.648 31.3125 323.034C32.0852 322.42 32.6572 321.614 33.0284 320.614C33.3996 319.614 33.5852 318.53 33.5852 317.364C33.5852 316.197 33.3996 315.11 33.0284 314.102C32.6572 313.095 32.0852 312.28 31.3125 311.659C30.5398 311.038 29.5549 310.727 28.358 310.727C27.161 310.727 26.1761 311.038 25.4034 311.659C24.6307 312.28 24.0587 313.095 23.6875 314.102C23.3163 315.11 23.1307 316.197 23.1307 317.364C23.1307 318.53 23.3163 319.614 23.6875 320.614C24.0587 321.614 24.6307 322.42 25.4034 323.034C26.1761 323.648 27.161 323.955 28.358 323.955ZM51.3608 318.864V308.545H54.0426V326H51.3608V323.045H51.179C50.7699 323.932 50.1335 324.686 49.2699 325.307C48.4063 325.92 47.3153 326.227 45.9972 326.227C44.9062 326.227 43.9366 325.989 43.0881 325.511C42.2396 325.027 41.5729 324.299 41.0881 323.33C40.6032 322.352 40.3608 321.121 40.3608 319.636V308.545H43.0426V319.455C43.0426 320.727 43.3987 321.742 44.1108 322.5C44.8305 323.258 45.7472 323.636 46.8608 323.636C47.5275 323.636 48.2055 323.466 48.8949 323.125C49.5919 322.784 50.1752 322.261 50.6449 321.557C51.1222 320.852 51.3608 319.955 51.3608 318.864ZM75.0455 326.364C73.4091 326.364 72 325.977 70.8182 325.205C69.6364 324.432 68.7273 323.367 68.0909 322.011C67.4545 320.655 67.1364 319.106 67.1364 317.364C67.1364 315.591 67.4621 314.027 68.1136 312.67C68.7727 311.307 69.6894 310.242 70.8636 309.477C72.0455 308.705 73.4242 308.318 75 308.318C76.2273 308.318 77.3333 308.545 78.3182 309C79.303 309.455 80.1098 310.091 80.7386 310.909C81.3674 311.727 81.7576 312.682 81.9091 313.773H79.2273C79.0227 312.977 78.5682 312.273 77.8636 311.659C77.1667 311.038 76.2273 310.727 75.0455 310.727C74 310.727 73.0833 311 72.2955 311.545C71.5152 312.083 70.9053 312.845 70.4659 313.83C70.0341 314.807 69.8182 315.955 69.8182 317.273C69.8182 318.621 70.0303 319.795 70.4545 320.795C70.8864 321.795 71.4924 322.572 72.2727 323.125C73.0606 323.678 73.9848 323.955 75.0455 323.955C75.7424 323.955 76.375 323.833 76.9432 323.591C77.5114 323.348 77.9924 323 78.3864 322.545C78.7803 322.091 79.0606 321.545 79.2273 320.909H81.9091C81.7576 321.939 81.3826 322.867 80.7841 323.693C80.1932 324.511 79.4091 325.163 78.4318 325.648C77.4621 326.125 76.3333 326.364 75.0455 326.364ZM90.9659 326.409C89.8598 326.409 88.8561 326.201 87.9545 325.784C87.053 325.36 86.3371 324.75 85.8068 323.955C85.2765 323.152 85.0114 322.182 85.0114 321.045C85.0114 320.045 85.2083 319.235 85.6023 318.614C85.9962 317.985 86.5227 317.492 87.1818 317.136C87.8409 316.78 88.5682 316.515 89.3636 316.341C90.1667 316.159 90.9735 316.015 91.7841 315.909C92.8447 315.773 93.7045 315.67 94.3636 315.602C95.0303 315.527 95.5152 315.402 95.8182 315.227C96.1288 315.053 96.2841 314.75 96.2841 314.318V314.227C96.2841 313.106 95.9773 312.235 95.3636 311.614C94.7576 310.992 93.8371 310.682 92.6023 310.682C91.322 310.682 90.3182 310.962 89.5909 311.523C88.8636 312.083 88.3523 312.682 88.0568 313.318L85.5114 312.409C85.9659 311.348 86.572 310.523 87.3295 309.932C88.0947 309.333 88.928 308.917 89.8295 308.682C90.7386 308.439 91.6326 308.318 92.5114 308.318C93.072 308.318 93.7159 308.386 94.4432 308.523C95.178 308.652 95.8864 308.92 96.5682 309.33C97.2576 309.739 97.8295 310.356 98.2841 311.182C98.7386 312.008 98.9659 313.114 98.9659 314.5V326H96.2841V323.636H96.1477C95.9659 324.015 95.6629 324.42 95.2386 324.852C94.8144 325.284 94.25 325.652 93.5455 325.955C92.8409 326.258 91.9811 326.409 90.9659 326.409ZM91.375 324C92.4356 324 93.3295 323.792 94.0568 323.375C94.7917 322.958 95.3447 322.42 95.7159 321.761C96.0947 321.102 96.2841 320.409 96.2841 319.682V317.227C96.1705 317.364 95.9205 317.489 95.5341 317.602C95.1553 317.708 94.7159 317.803 94.2159 317.886C93.7235 317.962 93.2424 318.03 92.7727 318.091C92.3106 318.144 91.9356 318.189 91.6477 318.227C90.9508 318.318 90.2992 318.466 89.6932 318.67C89.0947 318.867 88.6098 319.167 88.2386 319.568C87.875 319.962 87.6932 320.5 87.6932 321.182C87.6932 322.114 88.0379 322.818 88.7273 323.295C89.4242 323.765 90.3068 324 91.375 324ZM106.543 315.5V326H103.861V308.545H106.452V311.273H106.679C107.088 310.386 107.709 309.674 108.543 309.136C109.376 308.591 110.452 308.318 111.77 308.318C112.952 308.318 113.986 308.561 114.872 309.045C115.759 309.523 116.448 310.25 116.94 311.227C117.433 312.197 117.679 313.424 117.679 314.909V326H114.997V315.091C114.997 313.72 114.641 312.652 113.929 311.886C113.217 311.114 112.24 310.727 110.997 310.727C110.141 310.727 109.376 310.913 108.702 311.284C108.035 311.655 107.509 312.197 107.122 312.909C106.736 313.621 106.543 314.485 106.543 315.5ZM131.58 326V308.545H134.17V311.182H134.352C134.67 310.318 135.246 309.617 136.08 309.08C136.913 308.542 137.852 308.273 138.898 308.273C139.095 308.273 139.341 308.277 139.636 308.284C139.932 308.292 140.155 308.303 140.307 308.318V311.045C140.216 311.023 140.008 310.989 139.682 310.943C139.364 310.89 139.027 310.864 138.67 310.864C137.822 310.864 137.064 311.042 136.398 311.398C135.739 311.746 135.216 312.231 134.83 312.852C134.451 313.466 134.261 314.167 134.261 314.955V326H131.58ZM150.273 326.364C148.591 326.364 147.14 325.992 145.92 325.25C144.708 324.5 143.773 323.455 143.114 322.114C142.462 320.765 142.136 319.197 142.136 317.409C142.136 315.621 142.462 314.045 143.114 312.682C143.773 311.311 144.689 310.242 145.864 309.477C147.045 308.705 148.424 308.318 150 308.318C150.909 308.318 151.807 308.47 152.693 308.773C153.58 309.076 154.386 309.568 155.114 310.25C155.841 310.924 156.42 311.818 156.852 312.932C157.284 314.045 157.5 315.417 157.5 317.045V318.182H144.045V315.864H154.773C154.773 314.879 154.576 314 154.182 313.227C153.795 312.455 153.242 311.845 152.523 311.398C151.811 310.951 150.97 310.727 150 310.727C148.932 310.727 148.008 310.992 147.227 311.523C146.455 312.045 145.86 312.727 145.443 313.568C145.027 314.409 144.818 315.311 144.818 316.273V317.818C144.818 319.136 145.045 320.254 145.5 321.17C145.962 322.08 146.602 322.773 147.42 323.25C148.239 323.72 149.189 323.955 150.273 323.955C150.977 323.955 151.614 323.856 152.182 323.659C152.758 323.455 153.254 323.152 153.67 322.75C154.087 322.341 154.409 321.833 154.636 321.227L157.227 321.955C156.955 322.833 156.496 323.606 155.852 324.273C155.208 324.932 154.413 325.447 153.466 325.818C152.519 326.182 151.455 326.364 150.273 326.364ZM166.716 326.409C165.61 326.409 164.606 326.201 163.705 325.784C162.803 325.36 162.087 324.75 161.557 323.955C161.027 323.152 160.761 322.182 160.761 321.045C160.761 320.045 160.958 319.235 161.352 318.614C161.746 317.985 162.273 317.492 162.932 317.136C163.591 316.78 164.318 316.515 165.114 316.341C165.917 316.159 166.723 316.015 167.534 315.909C168.595 315.773 169.455 315.67 170.114 315.602C170.78 315.527 171.265 315.402 171.568 315.227C171.879 315.053 172.034 314.75 172.034 314.318V314.227C172.034 313.106 171.727 312.235 171.114 311.614C170.508 310.992 169.587 310.682 168.352 310.682C167.072 310.682 166.068 310.962 165.341 311.523C164.614 312.083 164.102 312.682 163.807 313.318L161.261 312.409C161.716 311.348 162.322 310.523 163.08 309.932C163.845 309.333 164.678 308.917 165.58 308.682C166.489 308.439 167.383 308.318 168.261 308.318C168.822 308.318 169.466 308.386 170.193 308.523C170.928 308.652 171.636 308.92 172.318 309.33C173.008 309.739 173.58 310.356 174.034 311.182C174.489 312.008 174.716 313.114 174.716 314.5V326H172.034V323.636H171.898C171.716 324.015 171.413 324.42 170.989 324.852C170.564 325.284 170 325.652 169.295 325.955C168.591 326.258 167.731 326.409 166.716 326.409ZM167.125 324C168.186 324 169.08 323.792 169.807 323.375C170.542 322.958 171.095 322.42 171.466 321.761C171.845 321.102 172.034 320.409 172.034 319.682V317.227C171.92 317.364 171.67 317.489 171.284 317.602C170.905 317.708 170.466 317.803 169.966 317.886C169.473 317.962 168.992 318.03 168.523 318.091C168.061 318.144 167.686 318.189 167.398 318.227C166.701 318.318 166.049 318.466 165.443 318.67C164.845 318.867 164.36 319.167 163.989 319.568C163.625 319.962 163.443 320.5 163.443 321.182C163.443 322.114 163.788 322.818 164.477 323.295C165.174 323.765 166.057 324 167.125 324ZM186.702 326.364C185.065 326.364 183.656 325.977 182.474 325.205C181.293 324.432 180.384 323.367 179.747 322.011C179.111 320.655 178.793 319.106 178.793 317.364C178.793 315.591 179.118 314.027 179.77 312.67C180.429 311.307 181.346 310.242 182.52 309.477C183.702 308.705 185.08 308.318 186.656 308.318C187.884 308.318 188.99 308.545 189.974 309C190.959 309.455 191.766 310.091 192.395 310.909C193.024 311.727 193.414 312.682 193.565 313.773H190.884C190.679 312.977 190.224 312.273 189.52 311.659C188.823 311.038 187.884 310.727 186.702 310.727C185.656 310.727 184.74 311 183.952 311.545C183.171 312.083 182.562 312.845 182.122 313.83C181.69 314.807 181.474 315.955 181.474 317.273C181.474 318.621 181.687 319.795 182.111 320.795C182.543 321.795 183.149 322.572 183.929 323.125C184.717 323.678 185.641 323.955 186.702 323.955C187.399 323.955 188.031 323.833 188.599 323.591C189.168 323.348 189.649 323 190.043 322.545C190.437 322.091 190.717 321.545 190.884 320.909H193.565C193.414 321.939 193.039 322.867 192.44 323.693C191.849 324.511 191.065 325.163 190.088 325.648C189.118 326.125 187.99 326.364 186.702 326.364ZM200.168 315.5V326H197.486V302.727H200.168V311.273H200.395C200.804 310.371 201.418 309.655 202.236 309.125C203.062 308.587 204.16 308.318 205.531 308.318C206.721 308.318 207.762 308.557 208.656 309.034C209.55 309.504 210.243 310.227 210.736 311.205C211.236 312.174 211.486 313.409 211.486 314.909V326H208.804V315.091C208.804 313.705 208.444 312.633 207.724 311.875C207.012 311.11 206.024 310.727 204.759 310.727C203.88 310.727 203.092 310.913 202.395 311.284C201.705 311.655 201.16 312.197 200.759 312.909C200.365 313.621 200.168 314.485 200.168 315.5ZM225.392 326V308.545H227.983V311.273H228.21C228.574 310.341 229.161 309.617 229.972 309.102C230.782 308.58 231.756 308.318 232.892 308.318C234.044 308.318 235.002 308.58 235.767 309.102C236.54 309.617 237.142 310.341 237.574 311.273H237.756C238.203 310.371 238.873 309.655 239.767 309.125C240.661 308.587 241.733 308.318 242.983 308.318C244.544 308.318 245.82 308.807 246.812 309.784C247.805 310.754 248.301 312.265 248.301 314.318V326H245.619V314.318C245.619 313.03 245.267 312.11 244.562 311.557C243.858 311.004 243.028 310.727 242.074 310.727C240.847 310.727 239.896 311.098 239.222 311.841C238.547 312.576 238.21 313.508 238.21 314.636V326H235.483V314.045C235.483 313.053 235.161 312.254 234.517 311.648C233.873 311.034 233.044 310.727 232.028 310.727C231.331 310.727 230.68 310.913 230.074 311.284C229.475 311.655 228.991 312.17 228.619 312.83C228.256 313.481 228.074 314.235 228.074 315.091V326H225.392ZM260.523 326.364C258.841 326.364 257.39 325.992 256.17 325.25C254.958 324.5 254.023 323.455 253.364 322.114C252.712 320.765 252.386 319.197 252.386 317.409C252.386 315.621 252.712 314.045 253.364 312.682C254.023 311.311 254.939 310.242 256.114 309.477C257.295 308.705 258.674 308.318 260.25 308.318C261.159 308.318 262.057 308.47 262.943 308.773C263.83 309.076 264.636 309.568 265.364 310.25C266.091 310.924 266.67 311.818 267.102 312.932C267.534 314.045 267.75 315.417 267.75 317.045V318.182H254.295V315.864H265.023C265.023 314.879 264.826 314 264.432 313.227C264.045 312.455 263.492 311.845 262.773 311.398C262.061 310.951 261.22 310.727 260.25 310.727C259.182 310.727 258.258 310.992 257.477 311.523C256.705 312.045 256.11 312.727 255.693 313.568C255.277 314.409 255.068 315.311 255.068 316.273V317.818C255.068 319.136 255.295 320.254 255.75 321.17C256.212 322.08 256.852 322.773 257.67 323.25C258.489 323.72 259.439 323.955 260.523 323.955C261.227 323.955 261.864 323.856 262.432 323.659C263.008 323.455 263.504 323.152 263.92 322.75C264.337 322.341 264.659 321.833 264.886 321.227L267.477 321.955C267.205 322.833 266.746 323.606 266.102 324.273C265.458 324.932 264.663 325.447 263.716 325.818C262.769 326.182 261.705 326.364 260.523 326.364ZM283.511 315.5V326H280.83V302.727H283.511V311.273H283.739C284.148 310.371 284.761 309.655 285.58 309.125C286.405 308.587 287.504 308.318 288.875 308.318C290.064 308.318 291.106 308.557 292 309.034C292.894 309.504 293.587 310.227 294.08 311.205C294.58 312.174 294.83 313.409 294.83 314.909V326H292.148V315.091C292.148 313.705 291.788 312.633 291.068 311.875C290.356 311.11 289.367 310.727 288.102 310.727C287.223 310.727 286.436 310.913 285.739 311.284C285.049 311.655 284.504 312.197 284.102 312.909C283.708 313.621 283.511 314.485 283.511 315.5ZM307.054 326.364C305.372 326.364 303.921 325.992 302.702 325.25C301.49 324.5 300.554 323.455 299.895 322.114C299.243 320.765 298.918 319.197 298.918 317.409C298.918 315.621 299.243 314.045 299.895 312.682C300.554 311.311 301.471 310.242 302.645 309.477C303.827 308.705 305.205 308.318 306.781 308.318C307.69 308.318 308.588 308.47 309.474 308.773C310.361 309.076 311.168 309.568 311.895 310.25C312.622 310.924 313.202 311.818 313.634 312.932C314.065 314.045 314.281 315.417 314.281 317.045V318.182H300.827V315.864H311.554C311.554 314.879 311.357 314 310.963 313.227C310.577 312.455 310.024 311.845 309.304 311.398C308.592 310.951 307.751 310.727 306.781 310.727C305.713 310.727 304.789 310.992 304.009 311.523C303.236 312.045 302.641 312.727 302.224 313.568C301.808 314.409 301.599 315.311 301.599 316.273V317.818C301.599 319.136 301.827 320.254 302.281 321.17C302.743 322.08 303.384 322.773 304.202 323.25C305.02 323.72 305.971 323.955 307.054 323.955C307.759 323.955 308.395 323.856 308.963 323.659C309.539 323.455 310.035 323.152 310.452 322.75C310.868 322.341 311.19 321.833 311.418 321.227L314.009 321.955C313.736 322.833 313.277 323.606 312.634 324.273C311.99 324.932 311.194 325.447 310.247 325.818C309.3 326.182 308.236 326.364 307.054 326.364ZM318.361 326V308.545H320.952V311.182H321.134C321.452 310.318 322.027 309.617 322.861 309.08C323.694 308.542 324.634 308.273 325.679 308.273C325.876 308.273 326.122 308.277 326.418 308.284C326.713 308.292 326.937 308.303 327.088 308.318V311.045C326.997 311.023 326.789 310.989 326.463 310.943C326.145 310.89 325.808 310.864 325.452 310.864C324.603 310.864 323.846 311.042 323.179 311.398C322.52 311.746 321.997 312.231 321.611 312.852C321.232 313.466 321.043 314.167 321.043 314.955V326H318.361ZM337.054 326.364C335.372 326.364 333.921 325.992 332.702 325.25C331.49 324.5 330.554 323.455 329.895 322.114C329.243 320.765 328.918 319.197 328.918 317.409C328.918 315.621 329.243 314.045 329.895 312.682C330.554 311.311 331.471 310.242 332.645 309.477C333.827 308.705 335.205 308.318 336.781 308.318C337.69 308.318 338.588 308.47 339.474 308.773C340.361 309.076 341.168 309.568 341.895 310.25C342.622 310.924 343.202 311.818 343.634 312.932C344.065 314.045 344.281 315.417 344.281 317.045V318.182H330.827V315.864H341.554C341.554 314.879 341.357 314 340.963 313.227C340.577 312.455 340.024 311.845 339.304 311.398C338.592 310.951 337.751 310.727 336.781 310.727C335.713 310.727 334.789 310.992 334.009 311.523C333.236 312.045 332.641 312.727 332.224 313.568C331.808 314.409 331.599 315.311 331.599 316.273V317.818C331.599 319.136 331.827 320.254 332.281 321.17C332.743 322.08 333.384 322.773 334.202 323.25C335.02 323.72 335.971 323.955 337.054 323.955C337.759 323.955 338.395 323.856 338.963 323.659C339.539 323.455 340.035 323.152 340.452 322.75C340.868 322.341 341.19 321.833 341.418 321.227L344.009 321.955C343.736 322.833 343.277 323.606 342.634 324.273C341.99 324.932 341.194 325.447 340.247 325.818C339.3 326.182 338.236 326.364 337.054 326.364Z" fill="#DFD0B8"/>
<path d="M184.735 8.67842C185.109 8.27265 185.084 7.64001 184.678 7.26531L178.066 1.15949C177.661 0.784828 177.028 0.809991 176.653 1.21576C176.279 1.62149 176.304 2.25417 176.71 2.62883L182.587 8.05622L177.16 13.9336C176.785 14.3394 176.81 14.972 177.216 15.3467C177.622 15.7214 178.254 15.6962 178.629 15.2905L184.735 8.67842ZM154 293C154.944 292.67 154.944 292.67 154.944 292.671C154.944 292.671 154.944 292.671 154.944 292.671C154.945 292.672 154.945 292.672 154.945 292.672C154.945 292.672 154.945 292.672 154.944 292.67C154.943 292.668 154.941 292.662 154.938 292.653C154.932 292.634 154.921 292.601 154.905 292.552C154.874 292.452 154.821 292.284 154.742 292.019C154.583 291.489 154.318 290.575 153.893 289.052C153.043 286.005 151.561 280.526 149.03 270.81C143.969 251.379 134.72 215.008 117.971 147.26L117 147.5L116.029 147.74C132.779 215.492 142.031 251.871 147.095 271.315C149.627 281.036 151.113 286.527 151.966 289.589C152.393 291.12 152.663 292.047 152.826 292.593C152.908 292.866 152.964 293.045 153 293.158C153.017 293.214 153.031 293.255 153.04 293.282C153.044 293.296 153.048 293.306 153.051 293.314C153.052 293.318 153.053 293.321 153.054 293.324C153.054 293.325 153.055 293.327 153.055 293.328C153.055 293.328 153.056 293.329 153.056 293.329C153.056 293.33 153.056 293.33 154 293ZM117 147.5L117.971 147.26C101.283 79.7611 118.018 45.3196 138.588 27.6971C148.915 18.8496 160.286 14.1708 169.09 11.7052C173.489 10.473 177.24 9.79581 179.885 9.42696C181.208 9.24256 182.253 9.13531 182.965 9.07434C183.321 9.04384 183.593 9.02493 183.774 9.01369C183.865 9.00806 183.933 9.00438 183.978 9.00212C184 9.00098 184.016 9.00023 184.027 8.99975C184.032 8.99953 184.036 8.99937 184.038 8.99927C184.039 8.99922 184.039 8.9992 184.04 8.99918C184.04 8.99917 184.04 8.9992 184 7.99998C183.96 7.00077 183.959 7.00081 183.958 7.00087C183.957 7.00091 183.955 7.001 183.953 7.00108C183.949 7.00124 183.944 7.00149 183.937 7.0018C183.923 7.00243 183.903 7.00337 183.877 7.00468C183.825 7.00731 183.749 7.01142 183.651 7.01749C183.454 7.02966 183.166 7.04976 182.794 7.08165C182.05 7.14542 180.969 7.25646 179.609 7.44609C176.889 7.82532 173.05 8.51922 168.551 9.77928C159.557 12.2981 147.897 17.0882 137.287 26.1782C115.981 44.4308 99.217 79.7394 116.029 147.74L117 147.5Z" fill="#DFD0B8"/>
</svg>
