<svg xmlns="http://www.w3.org/2000/svg" width="1200" height="630" viewBox="0 0 1200 630">
  <defs>
    <linearGradient id="bg" x1="0" y1="0" x2="1" y2="1">
      <stop offset="0" stop-color="#262c36"/>
      <stop offset="1" stop-color="#1b2027"/>
    </linearGradient>
  </defs>
  <rect width="1200" height="630" fill="url(#bg)"/>
  <text x="110" y="128" font-family="Inter, system-ui, sans-serif" font-size="44" font-weight="800" fill="#dfd0b8">Ultra Tokenizer</text>
  <text x="110" y="168" font-family="Inter, system-ui, sans-serif" font-size="20" fill="#dfd0b88c">Pick a model, paste your text, read the count. Nothing leaves the browser.</text>
  <g font-family="ui-monospace, Menlo, monospace" font-size="18">
    <rect x="110" y="204" width="112" height="40" rx="20" fill="#f4e7c5"/>
    <text x="166" y="230" text-anchor="middle" fill="#222831" font-weight="700">GPT-5</text>
    <rect x="234" y="204" width="128" height="40" rx="20" fill="#393e46" stroke="#dfd0b833"/>
    <text x="298" y="230" text-anchor="middle" fill="#dfd0b8a0">Claude</text>
    <rect x="374" y="204" width="132" height="40" rx="20" fill="#393e46" stroke="#dfd0b833"/>
    <text x="440" y="230" text-anchor="middle" fill="#dfd0b8a0">Gemini</text>
    <rect x="518" y="204" width="152" height="40" rx="20" fill="#393e46" stroke="#dfd0b833"/>
    <text x="594" y="230" text-anchor="middle" fill="#dfd0b8a0">DeepSeek</text>
    <rect x="682" y="204" width="112" height="40" rx="20" fill="#393e46" stroke="#dfd0b833"/>
    <text x="738" y="230" text-anchor="middle" fill="#dfd0b8a0">Kimi</text>
  </g>
  <rect x="110" y="280" width="980" height="200" rx="18" fill="#12161c" stroke="#dfd0b826"/>
  <g font-family="ui-monospace, Menlo, monospace" font-size="22">
    <rect x="138" y="316" width="82" height="38" rx="9" fill="#f4e7c522"/>
    <text x="150" y="342" fill="#f4e7c5">The</text>
    <rect x="228" y="316" width="128" height="38" rx="9" fill="#7ddb8a22"/>
    <text x="240" y="342" fill="#7ddb8a">quick</text>
    <rect x="364" y="316" width="128" height="38" rx="9" fill="#8ab7db22"/>
    <text x="376" y="342" fill="#8ab7db">brown</text>
    <rect x="500" y="316" width="94" height="38" rx="9" fill="#db8aa522"/>
    <text x="512" y="342" fill="#db8aa5">fox</text>
    <rect x="602" y="316" width="128" height="38" rx="9" fill="#dbc98a22"/>
    <text x="614" y="342" fill="#dbc98a">jumps</text>
    <rect x="738" y="316" width="106" height="38" rx="9" fill="#a58adb22"/>
    <text x="750" y="342" fill="#a58adb">over</text>
    <rect x="138" y="366" width="82" height="38" rx="9" fill="#8adbc922"/>
    <text x="150" y="392" fill="#8adbc9">the</text>
    <rect x="228" y="366" width="106" height="38" rx="9" fill="#db9e8a22"/>
    <text x="240" y="392" fill="#db9e8a">lazy</text>
    <rect x="342" y="366" width="94" height="38" rx="9" fill="#9edb8a22"/>
    <text x="354" y="392" fill="#9edb8a">dog</text>
    <rect x="444" y="366" width="36" height="38" rx="9" fill="#dfd0b81a"/>
    <text x="456" y="392" fill="#dfd0b8">.</text>
  </g>
  <text x="110" y="556" font-family="Inter, system-ui, sans-serif" font-size="40" font-weight="800" fill="#f4e7c5">10 <tspan font-size="24" font-weight="600" fill="#dfd0b88c">tokens</tspan>  ·  44 <tspan font-size="24" font-weight="600" fill="#dfd0b88c">characters</tspan></text>
</svg>
